<svg width="73" height="53" viewBox="0 0 73 53" fill="none" xmlns="http://www.w3.org/2000/svg">
<path d="M36.6599 40.3272C43.1071 40.3272 48.3335 35.1007 48.3335 28.6536C48.3335 22.2064 43.1071 16.98 36.6599 16.98C30.2128 16.98 24.9863 22.2064 24.9863 28.6536C24.9863 35.1007 30.2128 40.3272 36.6599 40.3272Z" stroke="#141414" stroke-width="4" stroke-linecap="round" stroke-linejoin="round"/>
<path d="M56.5049 21.6497C59.2241 21.6451 61.9067 22.2761 64.3389 23.4921C66.771 24.7082 68.8853 26.4757 70.5132 28.6538" stroke="#141414" stroke-width="4" stroke-linecap="round" stroke-linejoin="round"/>
<path d="M2.80664 28.6538C4.43452 26.4757 6.54884 24.7082 8.98097 23.4921C11.4131 22.2761 14.0958 21.6451 16.815 21.6497" stroke="#141414" stroke-width="4" stroke-linecap="round" stroke-linejoin="round"/>
<path d="M19.8496 50.834C21.3871 47.6853 23.778 45.0317 26.75 43.1755C29.722 41.3193 33.1556 40.3352 36.6596 40.3352C40.1636 40.3352 43.5972 41.3193 46.5692 43.1755C49.5412 45.0317 51.9321 47.6853 53.4696 50.834" stroke="#141414" stroke-width="4" stroke-linecap="round" stroke-linejoin="round"/>
<path d="M16.8152 21.6499C15.0426 21.6517 13.3062 21.149 11.8088 20.2006C10.3113 19.2522 9.11473 17.8972 8.35876 16.294C7.60279 14.6908 7.31869 12.9056 7.53965 11.1469C7.76061 9.38818 8.4775 7.72869 9.60657 6.36231C10.7356 4.99592 12.2302 3.97907 13.9158 3.43056C15.6013 2.88206 17.4081 2.82455 19.125 3.26477C20.842 3.70498 22.3983 4.62473 23.6119 5.91656C24.8256 7.20838 25.6466 8.81892 25.9789 10.56" stroke="#141414" stroke-width="4" stroke-linecap="round" stroke-linejoin="round"/>
<path d="M47.3408 10.56C47.6732 8.81892 48.4941 7.20838 49.7078 5.91656C50.9215 4.62473 52.4777 3.70498 54.1947 3.26477C55.9117 2.82455 57.7185 2.88206 59.404 3.43056C61.0895 3.97907 62.5841 4.99592 63.7132 6.36231C64.8422 7.72869 65.5591 9.38818 65.7801 11.1469C66.0011 12.9056 65.7169 14.6908 64.961 16.294C64.205 17.8972 63.0084 19.2522 61.511 20.2006C60.0135 21.149 58.2771 21.6517 56.5046 21.6499" stroke="#141414" stroke-width="4" stroke-linecap="round" stroke-linejoin="round"/>
</svg>
